HIERARCHY
ROOT Hips
{
	OFFSET 0.0000 0.0000 0.0000
	CHANNELS 6 Xposition Yposition Zposition Zrotation Xrotation Yrotation
	JOINT Ab
	{
		OFFSET -0.0000 8.1305 -0.0000
		CHANNELS 3 Zrotation Xrotation Yrotation
		JOINT Chest
		{
			OFFSET -0.0000 26.2902 -0.0000
			CHANNELS 3 Zrotation Xrotation Yrotation
			JOINT Neck
			{
				OFFSET -0.0000 26.2902 0.0000
				CHANNELS 3 Zrotation Xrotation Yrotation
				JOINT Head
				{
					OFFSET -0.0000 10.8167 0.0000
					CHANNELS 3 Zrotation Xrotation Yrotation
					End Site
					{
						OFFSET -0.0000 16.7167 0.0000
					}
				}
			}
			JOINT LeftCollar
			{
				OFFSET -0.0000 26.2902 0.0000
				CHANNELS 3 Zrotation Xrotation Yrotation
				JOINT LeftShoulder
				{
					OFFSET 19.6667 -0.0000 0.0000
					CHANNELS 3 Zrotation Xrotation Yrotation
					JOINT LeftElbow
					{
						OFFSET 27.2190 0.0000 0.0000
						CHANNELS 3 Zrotation Xrotation Yrotation
						JOINT LeftWrist
						{
							OFFSET 30.7431 0.0000 0.0000
							CHANNELS 3 Zrotation Xrotation Yrotation
							End Site
							{
								OFFSET 0.0000 -14.7500 0.0000
							}
						}
					}
				}
			}
			JOINT RightCollar
			{
				OFFSET -0.0000 26.2902 0.0000
				CHANNELS 3 Zrotation Xrotation Yrotation
				JOINT RightShoulder
				{
					OFFSET -19.6667 0.0000 0.0000
					CHANNELS 3 Zrotation Xrotation Yrotation
					JOINT RightElbow
					{
						OFFSET -27.2190 0.0000 0.0000
						CHANNELS 3 Zrotation Xrotation Yrotation
						JOINT RightWrist
						{
							OFFSET -30.7431 0.0000 0.0000
							CHANNELS 3 Zrotation Xrotation Yrotation
							End Site
							{
								OFFSET -0.0000 -14.7500 0.0000
							}
						}
					}
				}
			}
		}
	}
	JOINT LeftHip
	{
		OFFSET 11.8000 0.0000 0.0000
		CHANNELS 3 Zrotation Xrotation Yrotation
		JOINT LeftKnee
		{
			OFFSET -0.0000 -39.7832 0.0000
			CHANNELS 3 Zrotation Xrotation Yrotation
			JOINT LeftAnkle
			{
				OFFSET -0.0000 -41.7317 0.0000
				CHANNELS 3 Zrotation Xrotation Yrotation
				End Site
				{
					OFFSET -0.0000 -4.9167 16.7167
				}
			}
		}
	}
	JOINT RightHip
	{
		OFFSET -11.8000 0.0000 0.0000
		CHANNELS 3 Zrotation Xrotation Yrotation
		JOINT RightKnee
		{
			OFFSET -0.0000 -39.7832 0.0000
			CHANNELS 3 Zrotation Xrotation Yrotation
			JOINT RightAnkle
			{
				OFFSET -0.0000 -41.7317 0.0000
				CHANNELS 3 Zrotation Xrotation Yrotation
				End Site
				{
					OFFSET -0.0000 -4.9167 16.7167
				}
			}
		}
	}
}
MOTION
Frames: 8
Frame Time: 0.010000
-18.3193 97.1663 176.0884 357.4595 358.0205 176.7567 357.6028 347.7151 359.9103 0.7502 8.1115 0.1440 1.6217 356.8676 1.6911 352.7163 3.3541 1.8579 338.7571 357.2970 14.2998 317.9972 56.1150 341.1902 7.0318 358.0701 329.1131 84.7007 357.4632 343.2828 27.6473 355.9261 343.5923 48.2102 44.6423 1.7503 341.7691 355.1090 29.8504 271.8287 354.3269 12.5954 356.3232 4.5525 357.6089 358.1508 5.8683 7.5418 354.6236 351.5174 14.5690 356.8580 7.8955 9.8802 5.8458 4.0827 10.8609 347.9874 346.0470 312.9273 
-18.3271 97.1664 176.0847 357.4529 358.0079 176.7589 357.6012 347.7071 359.9495 0.7712 8.1128 0.1046 1.5227 356.8854 1.7278 352.8070 3.3313 1.8946 338.7388 357.3023 14.3672 317.9878 56.0841 341.1829 6.9932 358.0693 329.1055 84.7487 357.4828 343.2660 27.6479 355.9451 343.6419 48.1547 44.6568 1.7548 341.8193 355.1152 29.8448 271.8162 354.3628 12.6300 356.3127 4.5170 357.5834 358.1394 5.9193 7.5499 354.6937 351.4823 14.5533 356.8428 7.8935 9.9143 5.8458 4.0662 10.8628 347.9499 346.0892 312.9178 
-18.3335 97.1664 176.0849 357.4567 357.9950 176.7709 357.5983 347.7024 359.9091 0.7648 8.1238 0.1320 1.6587 356.8620 1.6975 352.6694 3.3518 1.8646 338.7620 357.2938 14.3163 317.9793 56.1251 341.1734 7.0425 358.0530 329.1181 84.7219 357.4742 343.2907 27.6548 355.9330 343.5884 48.1419 44.6207 1.7953 341.7604 355.1007 29.8414 272.0031 354.5040 12.7958 356.3213 4.4685 357.5587 358.1152 5.9934 7.5432 354.7319 351.4257 14.5928 356.8415 7.8888 9.9284 5.8513 4.0517 10.8395 347.9416 346.0962 312.9173 
-18.3424 97.1668 176.0805 357.4546 357.9874 176.7795 357.5995 347.7003 359.9334 0.7761 8.1280 0.1021 1.5547 356.8339 1.7135 352.7527 3.3919 1.8843 338.7470 357.3046 14.3647 318.0098 56.1104 341.1343 7.0069 358.0692 329.1204 84.7123 357.4831 343.2904 27.6513 355.9445 343.6367 48.1387 44.6057 1.7654 341.7838 355.0963 29.8555 271.9580 354.5271 12.7574 356.3181 4.4259 357.5296 358.1010 6.0701 7.5146 354.7134 351.3526 14.6678 356.8315 7.8982 9.9532 5.8568 4.0257 10.8187 347.9516 346.0936 312.9030 
-18.3496 97.1648 176.0812 357.4574 357.9664 176.7895 357.6025 347.6946 359.9081 0.7626 8.1281 0.1183 1.6490 356.8328 1.6920 352.6799 3.3807 1.8610 338.7628 357.2933 14.3290 318.0047 56.1301 341.1348 7.0578 358.0530 329.1287 84.6467 357.4772 343.2905 27.6564 355.9377 343.6125 48.1469 44.5772 1.7705 341.7688 355.1083 29.8461 272.0036 354.5042 12.7630 356.3245 4.3580 357.5193 358.0849 6.1616 7.4599 354.7825 351.2889 14.7011 356.8300 7.8860 9.9711 5.8592 4.0095 10.7862 347.9756 346.0788 312.9065 
-18.3597 97.1617 176.0815 357.4612 357.9466 176.7919 357.5425 347.7679 359.9500 0.8740 7.9836 0.1524 1.5488 356.8849 1.7122 352.8573 3.3633 1.8784 338.7042 357.2793 14.3270 317.9472 56.1743 341.2425 7.0195 358.0540 329.1323 84.6755 357.4725 343.2911 27.6138 355.9519 343.5835 48.1626 44.5905 1.7139 341.7708 355.1084 29.8553 271.9765 354.4342 12.4666 356.3283 4.2932 357.5095 358.0657 6.2584 7.4263 354.7663 351.2284 14.7390 356.8269 7.8747 9.9694 5.8615 3.9912 10.7665 347.9877 346.0720 312.9176 
-18.3705 97.1598 176.0799 357.4652 357.9321 176.7964 357.4746 347.8592 359.9966 0.9789 7.8197 0.1874 1.4456 356.9061 1.6899 353.0808 3.3883 1.8533 338.6515 357.2901 14.2638 317.9220 56.2387 341.3322 6.9946 358.0648 329.1464 84.5037 357.4579 343.1699 27.5722 355.9307 343.4827 48.2072 44.6061 1.6567 341.7462 355.1043 29.8440 271.8945 354.3705 12.2908 356.3321 4.2388 357.4841 358.0463 6.3494 7.3995 354.7962 351.1668 14.7524 356.8230 7.8698 9.9729 5.8645 3.9762 10.7533 347.9902 346.0789 312.9189 
-18.3815 97.1577 176.0721 357.4704 357.9266 176.7957 357.4829 347.8577 359.9975 0.9678 7.8425 0.1916 1.4689 356.8587 1.6534 353.0657 3.4282 1.8190 338.6599 357.3119 14.2307 317.9562 56.2351 341.2911 6.9974 358.0537 329.1404 84.4758 357.4632 343.1274 27.5635 355.9053 343.4475 48.2333 44.6135 1.6468 341.7524 355.1061 29.8380 271.8872 354.3674 12.3020 356.3336 4.2034 357.4599 358.0244 6.4201 7.4043 354.8316 351.1289 14.7778 356.8179 7.8806 10.0044 5.8676 3.9497 10.7160 348.0133 346.0710 312.9245 
